<svg width="33" height="33" viewBox="0 0 33 33" fill="none" xmlns="http://www.w3.org/2000/svg">
<g filter="url(#filter0_b_374_6504)">
<circle cx="16.9011" cy="16.166" r="16" fill="url(#paint0_linear_374_6504)"/>
<circle cx="16.9011" cy="16.166" r="15.5" stroke="url(#paint1_linear_374_6504)"/>
</g>
<g filter="url(#filter1_b_374_6504)">
<mask id="path-3-inside-1_374_6504" fill="white">
<path fill-rule="evenodd" clip-rule="evenodd" d="M19.9694 17.0929H18.8204C18.2681 17.0929 17.8204 17.5406 17.8204 18.0929V19.2453C17.8204 19.7554 17.4104 20.166 16.9011 20.166C16.3918 20.166 15.9694 19.7554 15.9694 19.2453V18.0929C15.9694 17.5406 15.5217 17.0929 14.9694 17.0929H13.8328C13.3235 17.0929 12.9011 16.6823 12.9011 16.1722C12.9011 15.6497 13.3235 15.2391 13.8328 15.2391H14.9694C15.5217 15.2391 15.9694 14.7914 15.9694 14.2391V13.0867C15.9694 12.5766 16.3918 12.166 16.9011 12.166C17.4104 12.166 17.8204 12.5766 17.8204 13.0867V14.2391C17.8204 14.7914 18.2681 15.2391 18.8204 15.2391H19.9694C20.4788 15.2391 20.9011 15.6497 20.9011 16.1722C20.9011 16.6823 20.4788 17.0929 19.9694 17.0929Z"/>
</mask>
<path fill-rule="evenodd" clip-rule="evenodd" d="M19.9694 17.0929H18.8204C18.2681 17.0929 17.8204 17.5406 17.8204 18.0929V19.2453C17.8204 19.7554 17.4104 20.166 16.9011 20.166C16.3918 20.166 15.9694 19.7554 15.9694 19.2453V18.0929C15.9694 17.5406 15.5217 17.0929 14.9694 17.0929H13.8328C13.3235 17.0929 12.9011 16.6823 12.9011 16.1722C12.9011 15.6497 13.3235 15.2391 13.8328 15.2391H14.9694C15.5217 15.2391 15.9694 14.7914 15.9694 14.2391V13.0867C15.9694 12.5766 16.3918 12.166 16.9011 12.166C17.4104 12.166 17.8204 12.5766 17.8204 13.0867V14.2391C17.8204 14.7914 18.2681 15.2391 18.8204 15.2391H19.9694C20.4788 15.2391 20.9011 15.6497 20.9011 16.1722C20.9011 16.6823 20.4788 17.0929 19.9694 17.0929Z" fill="url(#paint2_linear_374_6504)"/>
<path d="M19.9694 16.0929H18.8204V18.0929H19.9694V16.0929ZM16.8204 18.0929V19.2453H18.8204V18.0929H16.8204ZM16.8204 19.2453C16.8204 19.2046 16.8567 19.166 16.9011 19.166V21.166C17.9642 21.166 18.8204 20.3063 18.8204 19.2453H16.8204ZM16.9011 19.166C16.9191 19.166 16.9351 19.1738 16.9454 19.1839C16.9565 19.1948 16.9694 19.2174 16.9694 19.2453H14.9694C14.9694 20.3237 15.8556 21.166 16.9011 21.166V19.166ZM16.9694 19.2453V18.0929H14.9694V19.2453H16.9694ZM14.9694 16.0929H13.8328V18.0929H14.9694V16.0929ZM13.8328 16.0929C13.8508 16.0929 13.8668 16.1007 13.8771 16.1108C13.8882 16.1218 13.9011 16.1443 13.9011 16.1722H11.9011C11.9011 17.2506 12.7873 18.0929 13.8328 18.0929V16.0929ZM13.9011 16.1722C13.9011 16.1776 13.8998 16.1868 13.8955 16.1969C13.8915 16.2062 13.8861 16.2138 13.8804 16.2195C13.8689 16.2309 13.8512 16.2391 13.8328 16.2391V14.2391C12.7784 14.2391 11.9011 15.0902 11.9011 16.1722H13.9011ZM13.8328 16.2391H14.9694V14.2391H13.8328V16.2391ZM16.9694 14.2391V13.0867H14.9694V14.2391H16.9694ZM16.9694 13.0867C16.9694 13.1146 16.9565 13.1372 16.9454 13.1481C16.9351 13.1582 16.9191 13.166 16.9011 13.166V11.166C15.8556 11.166 14.9694 12.0084 14.9694 13.0867H16.9694ZM16.9011 13.166C16.8567 13.166 16.8204 13.1274 16.8204 13.0867H18.8204C18.8204 12.0258 17.9642 11.166 16.9011 11.166V13.166ZM16.8204 13.0867V14.2391H18.8204V13.0867H16.8204ZM18.8204 16.2391H19.9694V14.2391H18.8204V16.2391ZM19.9694 16.2391C19.951 16.2391 19.9333 16.2309 19.9219 16.2195C19.9161 16.2138 19.9107 16.2062 19.9067 16.1969C19.9024 16.1868 19.9011 16.1776 19.9011 16.1722H21.9011C21.9011 15.0902 21.0238 14.2391 19.9694 14.2391V16.2391ZM19.9011 16.1722C19.9011 16.1443 19.914 16.1218 19.9252 16.1108C19.9354 16.1007 19.9515 16.0929 19.9694 16.0929V18.0929C21.015 18.0929 21.9011 17.2506 21.9011 16.1722H19.9011ZM16.8204 14.2391C16.8204 15.3437 17.7158 16.2391 18.8204 16.2391V14.2391V14.2391H16.8204ZM14.9694 16.2391C16.074 16.2391 16.9694 15.3437 16.9694 14.2391H14.9694H14.9694V16.2391ZM16.9694 18.0929C16.9694 16.9883 16.074 16.0929 14.9694 16.0929V18.0929V18.0929H16.9694ZM18.8204 16.0929C17.7158 16.0929 16.8204 16.9884 16.8204 18.0929H18.8204H18.8204V16.0929Z" fill="url(#paint3_linear_374_6504)" mask="url(#path-3-inside-1_374_6504)"/>
</g>
<defs>
<filter id="filter0_b_374_6504" x="-499.099" y="-499.834" width="1032" height="1032" filterUnits="userSpaceOnUse" color-interpolation-filters="sRGB">
<feFlood flood-opacity="0" result="BackgroundImageFix"/>
<feGaussianBlur in="BackgroundImageFix" stdDeviation="250"/>
<feComposite in2="SourceAlpha" operator="in" result="effect1_backgroundBlur_374_6504"/>
<feBlend mode="normal" in="SourceGraphic" in2="effect1_backgroundBlur_374_6504" result="shape"/>
</filter>
<filter id="filter1_b_374_6504" x="-487.099" y="-487.834" width="1008" height="1008" filterUnits="userSpaceOnUse" color-interpolation-filters="sRGB">
<feFlood flood-opacity="0" result="BackgroundImageFix"/>
<feGaussianBlur in="BackgroundImageFix" stdDeviation="250"/>
<feComposite in2="SourceAlpha" operator="in" result="effect1_backgroundBlur_374_6504"/>
<feBlend mode="normal" in="SourceGraphic" in2="effect1_backgroundBlur_374_6504" result="shape"/>
</filter>
<linearGradient id="paint0_linear_374_6504" x1="16.9011" y1="0.166016" x2="16.9011" y2="32.166" gradientUnits="userSpaceOnUse">
<stop stop-color="#121212"/>
<stop offset="1" stop-color="#303030" stop-opacity="0"/>
</linearGradient>
<linearGradient id="paint1_linear_374_6504" x1="16.9011" y1="0.166016" x2="16.9011" y2="32.166" gradientUnits="userSpaceOnUse">
<stop stop-color="#5D5FEF"/>
<stop offset="1" stop-color="#5D5FEF" stop-opacity="0"/>
</linearGradient>
<linearGradient id="paint2_linear_374_6504" x1="16.9011" y1="12.166" x2="16.9011" y2="20.166" gradientUnits="userSpaceOnUse">
<stop stop-color="#121212"/>
<stop offset="1" stop-color="#303030" stop-opacity="0"/>
</linearGradient>
<linearGradient id="paint3_linear_374_6504" x1="16.9011" y1="12.166" x2="16.9011" y2="20.166" gradientUnits="userSpaceOnUse">
<stop stop-color="white" stop-opacity="0.5"/>
<stop offset="1" stop-color="white" stop-opacity="0.15"/>
</linearGradient>
</defs>
</svg>
