<svg width="21" height="18" viewBox="0 0 21 18" fill="none" xmlns="http://www.w3.org/2000/svg">
<path fill-rule="evenodd" clip-rule="evenodd" d="M12.9773 1.44209L20.246 14.0572C20.406 14.4338 20.476 14.7399 20.496 15.058C20.536 15.8012 20.276 16.5236 19.7661 17.0795C19.2562 17.6334 18.5663 17.9604 17.8164 18H3.1789C2.86896 17.9812 2.55901 17.9108 2.26906 17.8018C0.819302 17.2172 0.119419 15.5723 0.70932 14.1464L8.02809 1.43317C8.27804 0.986278 8.65798 0.600818 9.1279 0.353094C10.4877 -0.40098 12.2174 0.0944694 12.9773 1.44209ZM11.3675 9.75573C11.3675 10.2314 10.9776 10.6287 10.4977 10.6287C10.0178 10.6287 9.61782 10.2314 9.61782 9.75573V6.95248C9.61782 6.47585 10.0178 6.09039 10.4977 6.09039C10.9776 6.09039 11.3675 6.47585 11.3675 6.95248V9.75573ZM10.4977 14.0176C10.0178 14.0176 9.61782 13.6202 9.61782 13.1456C9.61782 12.669 10.0178 12.2726 10.4977 12.2726C10.9776 12.2726 11.3675 12.6601 11.3675 13.1347C11.3675 13.6202 10.9776 14.0176 10.4977 14.0176Z" fill="#D04E4E"/>
</svg>
