<svg width="79" height="78" viewBox="0 0 79 78" fill="none" xmlns="http://www.w3.org/2000/svg">
<g opacity="0.5">
<path fill-rule="evenodd" clip-rule="evenodd" d="M45.0579 11.7076H56.8263C70.9713 11.7076 77.8713 19.2593 77.8329 34.746V53.4143C77.8329 68.211 68.7096 77.3343 53.8746 77.3343H25.0863C10.3279 77.3343 1.16626 68.211 1.16626 53.376V24.5876C1.16626 8.71765 8.21959 0.667646 22.1346 0.667646H28.1913C31.7601 0.629313 35.0913 2.27765 37.2763 5.07598L40.6496 9.56098C41.7229 10.9026 43.3329 11.7076 45.0579 11.7076ZM21.7513 51.6126H57.2479C58.8196 51.6126 60.0846 50.3093 60.0846 48.7376C60.0846 47.1276 58.8196 45.8626 57.2479 45.8626H21.7513C20.1413 45.8626 18.8763 47.1276 18.8763 48.7376C18.8763 50.3093 20.1413 51.6126 21.7513 51.6126Z" fill="url(#paint0_linear_459_870)" fill-opacity="0.5"/>
<path d="M77.8329 34.746L77.3329 34.7447V34.746H77.8329ZM28.1913 0.667646V1.16768L28.1966 1.16762L28.1913 0.667646ZM37.2763 5.07598L37.6759 4.77538L37.6704 4.76826L37.2763 5.07598ZM40.6496 9.56098L40.25 9.86153L40.2545 9.8675L40.2592 9.87333L40.6496 9.56098ZM56.8263 11.2076H45.0579V12.2076H56.8263V11.2076ZM78.3329 34.7472C78.3522 26.9402 76.6242 21.0356 73.0177 17.0823C69.4032 13.1202 63.9846 11.2076 56.8263 11.2076V12.2076C63.8129 12.2076 68.9168 14.0709 72.279 17.7563C75.6491 21.4505 77.3519 27.0651 77.3329 34.7447L78.3329 34.7472ZM78.3329 53.4143V34.746H77.3329V53.4143H78.3329ZM53.8746 77.8343C61.3955 77.8343 67.5225 75.5196 71.7702 71.2768C76.018 67.034 78.3329 60.9164 78.3329 53.4143H77.3329C77.3329 60.7089 75.0862 66.5513 71.0635 70.5693C67.0408 74.5873 61.1887 76.8343 53.8746 76.8343V77.8343ZM25.0863 77.8343H53.8746V76.8343H25.0863V77.8343ZM0.66626 53.376C0.66626 60.8974 2.99087 67.0244 7.23833 71.2718C11.4858 75.5192 17.6031 77.8343 25.0863 77.8343V76.8343C17.8111 76.8343 11.9684 74.5877 7.94544 70.5647C3.92248 66.5418 1.66626 60.6895 1.66626 53.376H0.66626ZM0.66626 24.5876V53.376H1.66626V24.5876H0.66626ZM22.1346 0.167646C15.0797 0.167646 9.68087 2.21153 6.05629 6.34683C2.44248 10.4698 0.66626 16.589 0.66626 24.5876H1.66626C1.66626 16.7163 3.41671 10.8755 6.80831 7.00597C10.1891 3.14877 15.2745 1.16765 22.1346 1.16765V0.167646ZM28.1913 0.167646H22.1346V1.16765H28.1913V0.167646ZM37.6704 4.76826C35.3919 1.85021 31.9145 0.127626 28.1859 0.167675L28.1966 1.16762C31.6057 1.131 34.7906 2.70509 36.8822 5.3837L37.6704 4.76826ZM41.0492 9.26043L37.6758 4.77543L36.8767 5.37653L40.25 9.86153L41.0492 9.26043ZM45.0579 11.2076C43.4906 11.2076 42.0222 10.4763 41.04 9.24863L40.2592 9.87333C41.4237 11.329 43.1752 12.2076 45.0579 12.2076V11.2076ZM57.2479 51.1126H21.7513V52.1126H57.2479V51.1126ZM59.5846 48.7376C59.5846 50.0419 58.5348 51.1126 57.2479 51.1126V52.1126C59.1044 52.1126 60.5846 50.5767 60.5846 48.7376H59.5846ZM57.2479 46.3626C58.5391 46.3626 59.5846 47.3994 59.5846 48.7376H60.5846C60.5846 46.8559 59.1001 45.3626 57.2479 45.3626V46.3626ZM21.7513 46.3626H57.2479V45.3626H21.7513V46.3626ZM19.3763 48.7376C19.3763 47.4038 20.4174 46.3626 21.7513 46.3626V45.3626C19.8651 45.3626 18.3763 46.8515 18.3763 48.7376H19.3763ZM21.7513 51.1126C20.4217 51.1126 19.3763 50.0375 19.3763 48.7376H18.3763C18.3763 50.5811 19.8608 52.1126 21.7513 52.1126V51.1126Z" fill="url(#paint1_linear_459_870)"/>
</g>
<defs>
<linearGradient id="paint0_linear_459_870" x1="39.4997" y1="0.666992" x2="39.4997" y2="77.3343" gradientUnits="userSpaceOnUse">
<stop stop-color="white" stop-opacity="0.5"/>
<stop offset="1" stop-color="white" stop-opacity="0.1"/>
</linearGradient>
<linearGradient id="paint1_linear_459_870" x1="39.4997" y1="0.666992" x2="39.4997" y2="77.3343" gradientUnits="userSpaceOnUse">
<stop stop-color="white"/>
<stop offset="1" stop-opacity="0"/>
</linearGradient>
</defs>
</svg>
