<svg width="49" height="56" viewBox="0 0 49 56" fill="none" xmlns="http://www.w3.org/2000/svg">
<g opacity="0.5">
<path fill-rule="evenodd" clip-rule="evenodd" d="M29.6883 30.373C30.454 31.1463 31.6949 31.1463 32.4606 30.373C33.2526 29.5997 33.2526 28.3463 32.487 27.573L24.9094 19.893C24.7246 19.7063 24.5134 19.573 24.2757 19.4663C24.0381 19.3597 23.8005 19.3063 23.5365 19.3063C23.2724 19.3063 23.0084 19.3597 22.7708 19.4663C22.5332 19.573 22.3219 19.7063 22.1371 19.893L14.586 27.573C13.8203 28.3463 13.8203 29.5997 14.586 30.373C15.3516 31.1463 16.5926 31.1463 17.3582 30.373L21.5563 26.1063V38.9863C21.5563 40.0797 22.4276 40.9597 23.5365 40.9597C24.619 40.9597 25.4903 40.0797 25.4903 38.9863V26.1063L29.6883 30.373ZM44.0419 20.068C44.6625 20.0608 45.3383 20.053 45.9523 20.053C46.6124 20.053 47.1668 20.5863 47.1668 21.253V42.693C47.1668 49.3063 41.8335 54.6663 35.2856 54.6663H14.2955C7.40445 54.6663 1.8335 49.0397 1.8335 42.1063V13.3597C1.8335 6.74634 7.14043 1.33301 13.7411 1.33301H27.8401C28.5002 1.33301 29.0546 1.89301 29.0546 2.55967V11.1463C29.0546 16.0263 33.015 20.0263 37.8731 20.053C38.9836 20.053 39.9695 20.0614 40.8356 20.0688C41.5138 20.0745 42.1186 20.0797 42.652 20.0797C43.0278 20.0797 43.515 20.0741 44.0419 20.068ZM44.7792 16.1757C42.6089 16.1837 40.0532 16.1757 38.2129 16.157C35.2928 16.157 32.8875 13.7277 32.8875 10.7783V3.74901C32.8875 2.59967 34.2657 2.02901 35.0551 2.85834C37.0875 4.99073 40.1983 8.2582 42.8284 11.0207C43.8952 12.1413 44.8829 13.1787 45.6875 14.0237C46.4558 14.8317 45.8908 16.173 44.7792 16.1757Z" fill="#BDBDBD"/>
<path d="M32.4606 30.373L31.762 29.6575L31.7559 29.6634L31.7499 29.6694L32.4606 30.373ZM29.6883 30.373L28.9755 31.0744L28.9777 31.0766L29.6883 30.373ZM32.487 27.573L31.7751 28.2754L31.7763 28.2766L32.487 27.573ZM24.9094 19.893L25.6212 19.1907L25.62 19.1894L24.9094 19.893ZM24.2757 19.4663L24.6853 18.554L24.6853 18.554L24.2757 19.4663ZM22.1371 19.893L21.4265 19.1894L21.4241 19.1919L22.1371 19.893ZM14.586 27.573L15.2966 28.2766L15.299 28.2741L14.586 27.573ZM14.586 30.373L13.8754 31.0766H13.8754L14.586 30.373ZM17.3582 30.373L18.0689 31.0766L18.0711 31.0744L17.3582 30.373ZM21.5563 26.1063H22.5563V23.6642L20.8434 25.405L21.5563 26.1063ZM25.4903 26.1063L26.2031 25.405L24.4903 23.6642V26.1063H25.4903ZM44.0419 20.068L44.0304 19.068H44.0304L44.0419 20.068ZM37.8731 20.053L37.8676 21.053H37.8731V20.053ZM40.8356 20.0688L40.8441 19.0688L40.8356 20.0688ZM38.2129 16.157L38.223 15.157H38.2129V16.157ZM44.7792 16.1757L44.7768 15.1757L44.7756 15.1757L44.7792 16.1757ZM35.0551 2.85834L34.3308 3.54781L34.3313 3.54827L35.0551 2.85834ZM42.8284 11.0207L43.5527 10.3312V10.3312L42.8284 11.0207ZM45.6875 14.0237L46.4122 13.3346L46.4117 13.3341L45.6875 14.0237ZM31.7499 29.6694C31.3756 30.0475 30.7733 30.0475 30.3989 29.6694L28.9777 31.0766C30.1347 32.2451 32.0142 32.2451 33.1712 31.0766L31.7499 29.6694ZM31.7763 28.2766C32.1541 28.6582 32.1543 29.2745 31.762 29.6575L33.1591 31.0885C34.351 29.9249 34.3511 28.0345 33.1976 26.8694L31.7763 28.2766ZM24.1976 20.5954L31.7751 28.2754L33.1988 26.8707L25.6212 19.1907L24.1976 20.5954ZM23.8662 20.3786C24.0187 20.4471 24.1194 20.5164 24.1988 20.5966L25.62 19.1894C25.3298 18.8963 25.008 18.6989 24.6853 18.554L23.8662 20.3786ZM23.5365 20.3063C23.6539 20.3063 23.7523 20.3275 23.8662 20.3786L24.6853 18.554C24.3239 18.3918 23.9471 18.3063 23.5365 18.3063V20.3063ZM23.1803 20.3786C23.281 20.3335 23.4044 20.3063 23.5365 20.3063V18.3063C23.1405 18.3063 22.7359 18.3859 22.3613 18.554L23.1803 20.3786ZM22.8477 20.5966C22.9271 20.5164 23.0278 20.4471 23.1803 20.3786L22.3613 18.554C22.0385 18.6989 21.7167 18.8963 21.4265 19.1894L22.8477 20.5966ZM15.299 28.2741L22.8502 20.5941L21.4241 19.1919L13.8729 26.8719L15.299 28.2741ZM15.2966 29.6694C14.9168 29.2858 14.9168 28.6602 15.2966 28.2766L13.8754 26.8694C12.7238 28.0325 12.7238 29.9136 13.8754 31.0766L15.2966 29.6694ZM16.6476 29.6694C16.2733 30.0475 15.6709 30.0475 15.2966 29.6694L13.8754 31.0766C15.0323 32.2451 16.9119 32.2451 18.0689 31.0766L16.6476 29.6694ZM20.8434 25.405L16.6454 29.6717L18.0711 31.0744L22.2691 26.8077L20.8434 25.405ZM22.5563 38.9863V26.1063H20.5563V38.9863H22.5563ZM23.5365 39.9597C22.9804 39.9597 22.5563 39.528 22.5563 38.9863H20.5563C20.5563 40.6313 21.8747 41.9597 23.5365 41.9597V39.9597ZM24.4903 38.9863C24.4903 39.5368 24.0573 39.9597 23.5365 39.9597V41.9597C25.1806 41.9597 26.4903 40.6226 26.4903 38.9863H24.4903ZM24.4903 26.1063V38.9863H26.4903V26.1063H24.4903ZM30.4011 29.6717L26.2031 25.405L24.7774 26.8077L28.9755 31.0744L30.4011 29.6717ZM45.9523 19.053C45.3315 19.053 44.6497 19.0609 44.0304 19.068L44.0535 21.0679C44.6753 21.0607 45.3451 21.053 45.9523 21.053V19.053ZM48.1668 21.253C48.1668 20.015 47.1454 19.053 45.9523 19.053V21.053C46.0794 21.053 46.1668 21.1577 46.1668 21.253H48.1668ZM48.1668 42.693V21.253H46.1668V42.693H48.1668ZM35.2856 55.6663C42.3923 55.6663 48.1668 49.8521 48.1668 42.693H46.1668C46.1668 48.7606 41.2747 53.6663 35.2856 53.6663V55.6663ZM14.2955 55.6663H35.2856V53.6663H14.2955V55.6663ZM0.833496 42.1063C0.833496 49.5839 6.84418 55.6663 14.2955 55.6663V53.6663C7.96472 53.6663 2.8335 48.4954 2.8335 42.1063H0.833496ZM0.833496 13.3597V42.1063H2.8335V13.3597H0.833496ZM13.7411 0.333008C6.57591 0.333008 0.833496 6.20637 0.833496 13.3597H2.8335C2.8335 7.28632 7.70494 2.33301 13.7411 2.33301V0.333008ZM27.8401 0.333008H13.7411V2.33301H27.8401V0.333008ZM30.0546 2.55967C30.0546 1.35013 29.0618 0.333008 27.8401 0.333008V2.33301C27.8823 2.33301 27.9357 2.35092 27.9843 2.39992C28.0328 2.44897 28.0546 2.50752 28.0546 2.55967H30.0546ZM30.0546 11.1463V2.55967H28.0546V11.1463H30.0546ZM37.8786 19.053C33.5748 19.0294 30.0546 15.4804 30.0546 11.1463H28.0546C28.0546 16.5723 32.4552 21.0233 37.8676 21.053L37.8786 19.053ZM40.8441 19.0688C39.9782 19.0614 38.9884 19.053 37.8731 19.053V21.053C38.9788 21.053 39.9608 21.0614 40.8271 21.0687L40.8441 19.0688ZM42.652 19.0797C42.1237 19.0797 41.5236 19.0746 40.8441 19.0688L40.8271 21.0687C41.5041 21.0745 42.1134 21.0797 42.652 21.0797V19.0797ZM44.0304 19.068C43.5013 19.0741 43.0207 19.0797 42.652 19.0797V21.0797C43.0349 21.0797 43.5287 21.074 44.0535 21.0679L44.0304 19.068ZM38.2028 17.157C40.048 17.1757 42.6084 17.1837 44.7829 17.1757L44.7756 15.1757C42.6095 15.1837 40.0583 15.1757 38.223 15.1571L38.2028 17.157ZM31.8875 10.7783C31.8875 14.2706 34.7311 17.157 38.2129 17.157V15.157C35.8544 15.157 33.8875 13.1848 33.8875 10.7783H31.8875ZM31.8875 3.74901V10.7783H33.8875V3.74901H31.8875ZM35.7795 2.16887C34.3415 0.658263 31.8875 1.73475 31.8875 3.74901H33.8875C33.8875 3.66832 33.9097 3.61713 33.9344 3.58188C33.9621 3.54225 34.0043 3.50769 34.0563 3.48624C34.1083 3.4648 34.1584 3.46123 34.1986 3.46879C34.2331 3.47526 34.2784 3.49269 34.3308 3.54781L35.7795 2.16887ZM43.5527 10.3312C40.9227 7.56876 37.8116 4.30105 35.779 2.16841L34.3313 3.54827C36.3634 5.68041 39.474 8.94764 42.1041 11.7103L43.5527 10.3312ZM46.4117 13.3341C45.6072 12.4892 44.6195 11.4518 43.5527 10.3312L42.1041 11.7103C43.1709 12.8308 44.1587 13.8683 44.9633 14.7133L46.4117 13.3341ZM44.7816 17.1757C46.7876 17.1709 47.7737 14.7664 46.4122 13.3346L44.9628 14.7128C45.0467 14.801 45.0619 14.9064 45.0169 15.0131C44.994 15.0675 44.9592 15.1084 44.9228 15.134C44.891 15.1564 44.8467 15.1755 44.7768 15.1757L44.7816 17.1757Z" fill="url(#paint0_linear_459_608)"/>
</g>
<defs>
<linearGradient id="paint0_linear_459_608" x1="24.5002" y1="1.33301" x2="24.5002" y2="54.6663" gradientUnits="userSpaceOnUse">
<stop stop-color="white"/>
<stop offset="1" stop-opacity="0"/>
</linearGradient>
</defs>
</svg>
